<?xml version="1.0" encoding="utf-8"?>
<!-- Generator: Adobe Illustrator 21.1.0, SVG Export Plug-In . SVG Version: 6.00 Build 0)  -->
<svg version="1.1" id='SVG_-662225376' name='安徽省' xmlns="http://www.w3.org/2000/svg" xmlns:xlink="http://www.w3.org/1999/xlink" x="0px"
y="0px" viewBox="0 0 680 485" style="enable-background:new 0 0 680 485;" xml:space="preserve">
	<path class="view-map-svg-background" d="M472.7,416.6l1.3-0.8l1.1-0.7l0.6-1.3l-0.8-0.8l-0.9-0.4l0.3-2.1l1.1-0.2l1.2-0.9l1.1-1.4l-0.6-1.1l-1.3-1
	l-0.8-0.8l-0.8-1.3l-0.8-1.6l0.2-1.3l0.2-1.7l0.8-1l1.3-1.1l1.2-1.1l1.1-1.2l0.8-0.8l1.2,0.6l0.7-0.5l0.9,0.7l1.4,0.9l0.7,1l1.5,0.9
	l1,0.9l1.1,0.1l1.2-1.1c0,0,0.6-0.6,0.8-0.6c0.2,0,1.6,0.1,1.6,0.1s0.8,0.6,1,0.7c0.2,0.1,1,0.8,1,0.8l1.6-0.1c0,0,0.7,0.3,1,0.4
	c0.3,0.1,1.3,0.7,1.3,0.7l1.3,0.2l0.9-0.7l1-0.1l1.1,0.4l0.4-0.7l0.9-0.4l0.1-0.9l-0.4-1l0.3-1.2l1,0.1l0.9-0.1l1.1-0.8l1-0.9
	l1.1-0.8h0.8l0.8,0.5l0.7,1l0.9,0.2l1.2-0.4l1-0.8l1.3-0.6l-0.4-0.8l-1.4-1.5l-1.1-1l-0.8-1l-0.2-1.1l-0.4-0.9l-1-0.6l0.1-1.2
	l-0.6-0.8l0.4-1.3l0.2-1.3l0.1-1.2l-0.5-0.7l-0.8-0.9l-1.1,0.3l-0.6,0.7l-0.7,0.8l-0.7,0.5l-1.1-0.6l-1-1.4l-1.2-1.2l0.1-1.1l1-0.9
	l1.1-1.1l-0.4-0.9l-1.1-1l-0.9-1l0.7-0.7l2,0.1l1.7-0.1l1.1-0.7l1.1-1.3l1.1-1.4l1.4-1.1l1.2-1.2l1.2-0.1l0.8,0.8v1.1l0.4,0.8
	l1.8,0.5l1.7-1.3l0.5-1.2l1-1.7l1-1l0.2-2l-0.2-1.4l-0.6-1.1l0.6-1.4l0.9-0.8l1.4,0.3l1-0.5l0.9-1.3l0.6-1.1l0.2-1.1l0.7-0.5l1-0.3
	l0.2-1.1l-0.4-0.7l0.4-1.2l-0.5-1l-0.8-1.3v-2.1l1-1.7l1.1-1l-0.7-1.8l0.7-1.9l1.5-1.5l1.5-1.4l0.7-1.7l-0.6-2.5l-0.3-2.2l1-1.5
	l1.2-1.5l-1.2-1.5l-1.7-0.6l-1.8,0.3l-1.4,1.4l-1-1.4l-1-1.7l-1.5-0.6l-2.9,0.3l-2.6,0.1l-1.5-1.1l-1.4-1.4l-1.8,1l-1.1-1.7
	l-1.4-0.4l-1.1-1.2v-1.7l0.7-1.5l1.2-1.1l-0.8-2.2l-1.7-1.2l-0.4,1.5l-0.7,1.4l-2.8-0.3l-1.2,1.1l-1.7,0.3l-1-0.7l-1.2-0.1l-1,0.4
	l-1.4-0.7l-1.1-1.2l0.3-1.4l-1.1-0.4l-1.8,1l-1.5,1.5l-1.2,1.1l-1.4,0.6l-0.7,1.2l-3,0.6l-1.1,0.7l-1.5-0.1l-1.4-1l-1.4,0.6
	l-2.3-0.3h-1.7l-2.2-0.3l-1.8,0.8l-1.7-0.4l-2.2,1.1l-1.5-0.1l-2.5-0.6v-2.1l-1.5-1.5l-1.7-0.4l-1.4-1.4l-0.8-1.4 M472.7,416.6
	l0.5,1.3l-0.1,1.8l1.4,0.9l0.8,1l-0.6,1.1l1.3,1l-1.1,0.8v1.2l0.2,1.3l0.6,1l-0.5,0.8l-0.2,2.1l-1.6,0.1l-1.7,0.1l-0.6,1.1l0.1,2.1
	l-0.4,1.6l-1.6,1.4c-0.5,0.3-1.4,1.6-1.4,1.6l-1.1,1l-1.7-0.1l-0.6,1.3l0.7,1.1l-2.2,0.7v2.2l0.8,1.2l0.4,1.3l-0.3,1.9l-1.6,0.6
	l-0.1,1.7l-1.7,0.5l-1.6,1.3l-0.6,1.9l-1.1,1.8l-1.4,0.8l-1.6-0.8l-1.7,0.6l-1.8,0.8l-1,1.7l-1.2,1.1l-0.9,1.3l-2,0.9l-1,2l-0.2,1.2
	v1.4l-0.7,1.3l-2.1,0.6h-1.4l-2.3,0.1H436l-1.1,1.2l-1.3,1.6l-1-0.7l-1.6-1.2l-1.2,0.9l0.2,1.2l0.6,1.3l0.3,1.6l-0.2,1.8h-2.1
	l-1.6-0.2l-1.7-0.4l-1.4,0.9l-1.3,0.6l-0.9,1.8l-1.6-1l-2.3-0.9l-1.6-0.8l-0.2-1.2l0.8-1.2l-1.3-1.6l1.4-1.2l-0.4-1.6l-0.8-1.1
	l-1.3-0.7l-0.9-1l-1.7,0.1l-1.4-0.1l-0.9-1.6l-0.6-1.1l-0.9-0.9l-1.2-0.1l-1.1,0.7l-1.4-0.2l-1.3,0.3l-1.1,0.9h-2l-1.4,0.9l-2.1-0.3
	l-1.2-0.8l-2.2-0.6l-1-1l-1,0.8c0,0-0.6,0.5-1,0.5c-0.4,0-1.9,0-1.9,0l-1.4,0.1l-1,1.2l-1.3,0.3l-1.6-0.7l-1.3-0.9l0.4-0.7l-0.5-1.2
	l-1-0.7l-0.6-1.2l-1.7-0.6l-0.9,1l-1.1,1l-2,0.5H372l-2-1l-1-1.1l-1.3-1.3l0.7-1.2l0.5-1l-0.6-0.8l-1.4-0.7l-0.6,0.8l-1.4,0.1
	l-0.5-1l-0.4-1.1l-1-1.2l0.6-1.1l0.1-1.8v-1.2l-0.7-1.3l-1.4-0.2l-0.7-1.1l-0.7-1.3l-0.5-1.4l0.7-1.7l0.8-1.8l-1.2-0.7l-1.4,0.2
	l-0.9,0.4l0.1,1.7l-0.7,1.1l-1.2-0.3l-1-0.8l-0.1-0.9l0.2-1.4l-0.7-0.6l-1,0.6l-0.4,1l-1.2,0.3l-0.7,0.2l-0.6,1l-1.3-0.2l-1.2-0.8
	l-0.9-0.9l0.2-0.9l0.7-1l0.8-1.3l-0.6-1.2v-1l-0.9-1.2l-1.6-0.1l-0.8-0.2l-1.1-0.5 M307.9,422.1l1.8,2.1l1.2,0.9l0.6,1.6l1.6,0.8
	l0.9-0.4l0.4,0.9l-0.7,0.9l1.2,1.3l1.1-0.4l0.8-1.2l1,0.9l1.3,0.7l1,0.7l0.1,1l-1.3,0.8v2l-0.3,1.3l-1.1,1.7l-0.8,0.5l-1,1.8
	l-1.2,1.6l-0.7,1.9l-2.1,0.5l-0.2,1.2l-0.4,1.1l-1.2-0.3l-1.3-1l-1.3,1.8L306,448l-1.9,1.4l-1.4,1.6l-0.9,1.9l-0.6,1.2l-1.6,0.7
	l1.3,0.7c0,0,1.9-0.2,1.4-0.4c-0.4-0.2,1.4-0.6,1.4-0.6l1,0.7l-2.3,0.9l-1,1l-1.6,1.9l1.1,1.3l1,0.5l0.7,1.2l0.9,1.2l0.9,0.2
	l0.6,0.8l-0.1,1l0.8,0.3l1.6-1.1l0.5-1.3l1.3,0.2l1,0.8v1.4l1.4,0.5l1.8,0.1l1.7-1.4l0.9-1.4l0.9-1.6l0.7-1h1.8l1.6-0.9l1-1l2.5-0.1
	l0.9-1.4l1-1.4l1.3-0.7l1.9,0.4h1.4l1.8-0.7l1.8-1.2l1.6-0.9l0.7-1.1l-1.6-1l-0.4-1.6l1.4-0.6l0.7-0.7l0.2-1.3l-1-0.9l-2.1-1.2
	l-1.8-0.9v-1l1-0.5l1.2-0.5l1.9-1.6l1-1.3L337,437l0.2-1.3l1.8-1.1l1.7-0.3l2.5-0.5 M459,308.9l0.7-0.2l0.6-1.4l1-1.8l0.6-1.3l0.3-2
	l1.1-0.4l1.1,1.6l1.7-0.2l1.4-0.6l1.9-1.3l1.2-1.3l0.3-1.8l-0.1-2.3l0.2-1l1.4-1.3l-0.4-1.7l0.5-1.3l-0.4-1.8l-0.5-1.6l-0.1-1.3
	l0.1-2.2l-0.8-1.6l-1.1-1.6l-1.2-0.8l-1.3,0.2l-0.7,1l-1.1-0.7l-0.6-1l0.1-1.3l0.8-0.9l-1-1.1l-2.4-0.2l-0.9,0.9l-0.2,1.6l-0.1,0.8
	l-0.8,1l-1.1-0.4l-0.7-0.8h-0.9l-0.5,0.7l-1-0.2l-0.9-0.6l-1,0.1l0.1-1.6l-0.2-1.4h1.3l0.4-1.3l1.1-0.6l1.2-0.6l-2-1.8l-1.9-0.1
	l-0.3-2.2l-0.5-0.7l-2.5,0.6l-1.6,1.2l-1.2-0.2l-1.4,1.4l-0.9-0.8l-0.8-0.5l0.8-1.7l-2-0.6l-1.1-1 M442.6,267l-1.4-0.8l1-2.7
	l0.6-1.7l-1.1-1.1l-1.6-1l-0.3-2.1l-2.5-1l-2.2-1.5l-1.9-0.8l-1.7-1.6l1-1.9l0-1.6l1.1-1l0.1-3.1l-0.7-2.6 M307.9,422.1l-3,0.4
	L302,421l-3.7-0.1l-2.9,2.8l-1.5,2.3l0.3,6.3l-1.8,3.3l-3,0.8h-3.7l-5.9,4l-2.8,0.7l-4,3.2l-3.4,2.5l-4-4.1l-3-0.7l-2.8,0.7
	l-0.8-3.3l0.1-4.3l-2.5-2.1l-1.5-2.6l0.7-4l0.8-2.6l-1.2-2.2l0.8-5.6l-1.4-1.7l-1.1-3.6l0.6-2.5l-1.7-1.2l-1.8-2.1l-2.3-1.4
	l-0.1-2.6l-3.2-1.8l-2.5,0.7l0.8-2.1l-2.5-2.8l-0.1-2.3l1.9-1.8l2.2-2.2l-3-2.2l-0.3-3.2l1.2-2.5l-1.8-2.5l-0.6-3.3l-2.3-2.3
	l-2.6,0.3l-0.3-2.8l-1.2-1.9l-1.9-1.5l-0.3-4l0.7-2.9l1.8-1.1l3.4,0.4l1.4-3l0.7-2.2l-2.5-2.1l2.2-2.6l1.8-1.9l2.6,0.6l2.8-2.9
	l3.6-2.9l2.6-1.1l2.8,0.3l-1.2-2.8l-0.6-2.3 M433.1,242.9l0.3-1.1l1.9-2.6l2.6-0.1l3.6-3l1.1-2.3l-1.2-2.5l1.7-1.4l3.4-0.3l3.3-0.7
	l2.1-0.1l2.3-2.1l1-2.1l-1.7-2.1l0.4-2.6l3.4-2.5l-0.6-2.6l0.1-1.9l-1.2-1.1l-0.6-4.3l1.5-2.1l-1.8-1.9l-4.3,1.5l-1.8-1.4l-0.6-1.8
	l2.3-1l-1-2.3l-3.6-3l2.1-2.3h2.6l0.6,1.8l2.5-1.9l1.8,1.1l1-1.9l1.8-0.4l0.7,2.2l1.4-1.2l2.2,0.8l0.4,1.4l2.2-2.1l1,0.7l0.4,1.5
	h2.3l1.9-1.5l1.7,0.1l-1.2,2.1l3.3,0.7l2.5,1.9l0.1,2.1l2.3,0.6l1.8-1.4l1.5,0.8l1.1,1.9l0.6,2.3l2.2,0.7l2.6-3.2l2.6-1.9l-0.1-2.5
	l-1.2-1.4l2.9-3.6l2.1,1.7l0.8-2.5l-0.7-2.9l-2.5-2.9l2.1-1.5l0.1-3.3l-1.1-1.7L494,177l-0.6-2.5l-1.2-2.5h-1.5l-0.4,1.4l-2.8-0.6
	l-2.1-2.3l-2.2-2.8l-1.1-3.3l-2.1,0.3l0.7-1.5v-2.3l-1.9-1l-2.3,1.4l-2.2,1l-2.1-0.1l-1.5-0.4l-0.4-1.9l-1.9,0.3l-1.8,1.9l-0.3,2.9
	h-2.1l0.1,4.8l-1.9,1.1l-2.3-0.8l-1,2.2l1,1.8l-1.1,2.5l1.5,2.2l-0.1,2.2l-3.2,1.2l-3-0.6l-2.1-1.5l-1.5,0.7l-1.8,1.7l-2.9-0.3
	l-2.3-1.2l-2.2,1.1l-3,0.3l-1.2-1.1c0,0-0.8,1.5-1.8,1.7c-1,0.1-3.2-0.1-3.2-0.1l-1.5-1.1l0.8-2.8l-1.2-1l-2.5,0.8l-1.2-1.1
	l-1.1-2.2l1.5-2.2l-1.1-1.5l-2.3-1.2l-1.5,0.6l-0.3-2.5l-1.4-2.3c0,0,0.3-1.9,1-2.3c0.7-0.4,3-1.2,3-1.2l2.8-0.3l-0.6-1.9l-3.7,0.1
	l-1.8-2.2v-4l-2.2-3.4l1.4-2.9l-0.1-6.6l-1.9-1.8l-1.7-1.8l-1.9,2.3l0.3,2.2l-2.9,1.1l-3.5,2.3 M239.5,202.1l3,1.3l-1.7,2.3l1.8,1.4
	l1,13.1l1.2,3.3l-1.1,2.1l0.7,2.9c0,0,1.8,3.2,2.1,3.9c0.3,0.7-1.4,4.4-1.4,4.4l1.2,4.1l-1.8,2.2v3l1,1.7l-1.5,3.9l0.7,2.9l-1.9,3.9
	l-0.7,3.4l2.3,2.8l-1.6,1.9l-2.8,1.9l-1.7-1.4l-2.2,1.5l-3.4-2.1l-2.3,0.7l-1.2,1.4h-1.9l-1.4-1.4l-2.3,1.8l-3.2,2.9l-4.5,2.6
	l-2.2-0.3l-3.2,3.3l-0.1,2.5l1.1,1.8l-2.1,1l-1.9,1.7l-1.1,2.1v1.9l-4.1,3.6l-0.3,1.9l0.7,1.8l0.1,3.4l-1,1.2l1.1,1.5l-1.1,1.4
	l0.3,1.8l2.1,1.5l1.2-1.2l1.8,0.3l0.4,2.2l1.5,1.7l-1.1,1.5l1.9,1.9l1.9-0.1l2.3,1.9l0.1,4.7l1.1,2.2l2.6,2.3l2.2-3l3.2-3l3.4,1.1
	l2.8,3l0.8,2.5l2.1,2.9l2.8-1.7l1.7,0.3l2.3-2.1l2.5,1.1l-0.3,3l2.6,1.5l1.8,1.8l-0.1,1.9l4,1l2.3,2.3l1.7-0.4 M239.5,202.1
	l-4.4,3.3l-1.4-3l-1.9,1.9l-4.7-1.7l0.8,2.5l-1.7,0.6l0.3,2.8l-3.6,2.5l-1.9-2.5l-2.8,1.9l-3.9-3.6l-3.9-5.8l-3.6-2.8l-1.1-2.5
	l-5.5,0.8l-3.9-2.2l-5.5-0.8l-1.1-3.9l1.1-1.9l-1.9-2.2v-6.6l1.9-2.8l-0.6-2.2l0.6-3.3l-1.9-0.6l-2.5-1.9l-0.8-2.5l-1.9,0.8
	l-1.9-0.8l-2.8-0.3l-1.7-3l-3.6-0.6l-1.7,1.1l-2.8-3l-2.2-1.1l0.8-3.3l2.5-0.6l-1.7-5.5l-0.3-3.6l3.6-2.8l2.8,1.7l0.6,2.8l3,1.1
	l8.8,1.4l3.6-3.9l3.6-0.8l3.9-0.8v-5.2h1.9l1.4-8l1.7-4.1l-3-3.3l1.4-2.5l-1.4-1.7l0.6-2.5l1.7-0.3l-0.3-3.9l1.4-1.9l3.6,1.1l1.4-5
	l3-0.6l6.9,0.6l1.7-2.2l5,0.1 M400,128.4l2.1-0.1l-1.2,5l-1.9,0.8l-0.7,3.9l2.8-0.6l1.4,1.5l-0.7,1.9l4.7,4.3l2.1,0.6 M282.3,87.8
	l-4.5,0l-2,1.6l-2.3,0.4l-1,1.5l-1.1,1.7l-1.8-1.2l-1.2,1.2l-1.7,0.1l-1,1.4l-1.4-0.3l-1.5-3l-2.1-1.8l-1.5-1.8l-1.8-0.8l-1.4-2.6
	l1.1-1.5L256,80l-3.2-2.3l-1.9-1.7l0.6-2.5l1.7-1.9l-3.7-4.1l-3.9,0.4l-1.7-2.1l-1.5,1.8l-1.2-0.4l0.1-1.8l-3.2-3l-2.6,0.4l-2.8-1.7
	l-2.2,1.1l-1.7-0.4l-2.3,0.6l-1.1,2.2h-2.1l-0.4,2.3l-1.4,1.1l0.1,1.9l-2.2,3.9l0.3,2.5l-1.7,2.1c0,0,1.7,0,2.3,0
	c0.7,0,1.7,1.4,1.7,1.4l1.8-1l1.5,1.5l0.1,1.7l-1.5,1.8l-0.1,3l-1,1l-2.1-0.8l-1.4,1.5l2.6,3.7l-0.4,2.2l0.3,3.7l3,5.5l-0.2,2.2
	M329,46.4l2.5,0.1l-1,3.3l-0.9,1.5l0.5,1.9 M282.3,87.8l0.4-1.9l2.1,0.4l0.2-4.1l3.1-1.9l1.9,0.8l2.1-2.3h2.3l0.9-2.4l3.2,2.3
	l2.5-0.3l-0.7-2.5l1.1-4.8l-3.8-4.7 M329,46.4l-4.4-4.1l-0.3-2.8l2.5-2.2l-2.8-3.6l-2.8-1.7H318l-2.2,1.9l-3.9-3l-1.9-3.9l-9.4-1.7
	l-5-0.8l1.4-2.2l-2.5-2.2l-2.2-0.3l-3-2.8l-0.3-3.3l-3-1.9l-0.8-2.2l-7.7,3.3l-1.1,1.9l-2.5-0.8l-3,4.7l-2.5-2.5l-0.8,6.3l-2.5,4.1
	l3.9,5.5l-0.8,1.9h3.6l7.7,5.2l0.8,4.7l2.5-1.4l1.9,1.7L286,42l1.9,1.9l2.8-3l6.1,3l-4.1,5.5l2.5,2.8l-2.8,3.9l5.2,10.5
	M400.1,128.5l0.8-2.5h2.8l1.7-2.8l-1.1-1.7l-0.3-4.4l3-3.6l3.3,1.4l1.1-12.4l3.3-4.4l-0.8-5.5l2.5-0.3l-2.5-2.5l-4.4-1.1l-6.6,2.8
	l-3-1.7l-1.9,2.8l-2.5-0.8l-1.1,1.9l-3.6-2.2l-3.6,0.6l-3.3,2.2l-2.5-4.1l2.5-1.9l-0.3-3.3l0.8-5l-2.2-2.2l-1.9,1.1l-3-3.9v-5.5
	l-3.9-3.6l-3,4.1l-2.8-2.5v-2.8l-2.5-2.5l-3.3,3.3l-4.1,0.8l-1.9-4.4l-2.5-1.4l-2.8,0.6l-1.1,1.9l-1.1-1.7l-3,1.9l-7.2-3.9l-1.4-2.2
	l-6.6-4.1"/>
	<g>
		<path id="Path_155838833" name="六安" class="view-map-svg-path" d="M281.8,204l-3.8,1.1l-4.2-3.8l-2.2-3.3l-4.2,0.7l-1.7,4.2l-2.5,0.2l-2.6,2.2l-4.6-4.5l-1.8-5
		c0,0-4.3-1.9-4.2-1.9s-0.7-2.8-0.7-2.8l-2.2-2l-3.6,1.1l-1.7,3.1l-2.2-1.4l-4.4,6.5l3.1,1.3l-1.7,2.3l1.8,1.4l1,13.1l1.3,3.3
		l-1.1,2.1l0.7,2.9c0,0,1.8,3.2,2.1,3.8c0.3,0.7-1.4,4.5-1.4,4.5l1.3,4.2l-1.8,2.2v3.1l1,1.7l-1.5,3.8l0.7,2.9l-2,3.8l-0.7,3.5
		l2.3,2.8l-1.6,1.9l-2.8,2l-1.7-1.4l-2.2,1.5l-3.5-2.1l-2.3,0.7l-1.3,1.4h-2.1l-1.4-1.4l-2.3,1.8l-3.2,2.9l-4.6,2.6l-2.2-0.3
		l-3.2,3.3l-0.1,2.5l1.1,1.8l-2.1,1l-2,1.7l-1.1,2.1v2l-4.2,3.6l-0.3,2l0.7,1.8l0.1,3.5l-1,1.3l1.1,1.5l-1.1,1.4l0.3,1.8l2.1,1.5
		l1.3-1.3l1.8,0.3l0.4,2.2l1.5,1.7l-1.1,1.5l2,2l2-0.1l2.3,2l0.1,4.7l1.1,2.2l2.6,2.3l2.2-3.1l3.2-3.1l3.5,1.1l2.8,3.1l0.7,2.5
		l2.1,2.9l2.8-1.7l1.7,0.3l2.3-2.1l2.5,1.1l-0.3,3.1l2.6,1.5l1.8,1.8l-0.1,2l3.9,1l2.3,2.3l2.7-0.7l1.2-2.6l2.5-2h1.5l2.3-0.6l1,0.4
		l0.8,1.7l4.6,0.4l3.4-2.5l3.8-4.6l2.1-0.5l2-1.5l2.3,0.7l1.4,1.6l2,1.6l4.5-1.6c0,0,2.2-2.3,2.8-2.3c0.6,0,0.3-0.7,0.3-0.7
		l-0.5,3.5l0.4,1.5l-0.6,1.3l-1,2.5c0,0-0.7,5.2,0.2,5.3c0.7,0.1,3.6-1.8,3.6-1.8l2.3-0.8l1.6-1.1l2,1.2h2.1l2.3,0.5l2.1-0.6
		l4.7-0.8l4.2-2.5l2.5-2.8l2.2,0.1l4.1-4.1l1.5-6l2.5-3.2l1.3,0l1-3.5l2-0.6v-3.6l0.1-3.6l1.3-4.3l2.1-3.5c0,0,2.5-1.4,2.6-2
		s0.6-2,0.6-2l1.8-0.7l1.5,1.3l4.3-0.4l-2.8-3.8l-5.9-1.1l-1.8,1l-3.8-0.6l-2.8,1l-3.1-2.1l-1.3,2.2l-3.5-0.6l-2.1,1.4L313,286
		l-2.3,1.7c0,0-5.6-3.9-5.3-4.6c0.3-0.6,0.1-3.9,0.1-4.9c0-0.9-1.5-2.7-1.5-2.7l1.5-1.3l-0.3-3.8l-1.3-1.1l1.4-1.4l-0.7-2.5
		l-2.5-1.3l-3.1-2.8l2-2.2l2.2-1.1l-1.7-2.1l3.6-3.5l-4-1.3l-2.4,1.4l-0.1-4.5l-0.7-1.8l-2.5-1.1l-1.2-0.3l-1.2-0.4l-2.2-2.2l-2.7-1
		l-0.5-3.8l-1.7-3.4l1-2.3l-2-3.1l0.3-2.9l-1.2-1l2.8-2.3l-1.4-1.7l1.5-2.1l-1.1-1.4l-0.3-2.4l-2.9-3.6l-0.2-2.5l2-1l-2.5-2.4l0.3-1
		L281.8,204z"/>
		<path id="Path_-1167913982" name="滁州" class="view-map-svg-path" d="M404.7,141.7l-0.6,5.5l-2.2-0.2l-2.8,2.2l0.2,1l3,1l-1,2.2l-2.3-0.6l-1.4,0.4l-2.1-1l-2.9,2.5
		l-4-1.8l2.6-2.3l-1.4-1l-5.8,1.7l-0.7-1.5l-1.6-0.1l-2.1,3.3l-2.2,0.4l-1.3,2.1l-0.1,2.3l-1.4,3.4l-1.8,1.1l-1.3-1.6l-2.9-0.2
		l-4.9-4.8l0.1,3.5l-1.2-0.1l-1.3,1.6l0.4,2.3l0.7,0.7l-0.5,2H361l-2.1,3l-1.4-0.7h-1.9l-1.2,0.7l-3.2-0.7l-2.2,1.5h-2.2l-2.1,2
		l-2.2-0.1l-1.3,1.9l-0.2,1.5l-3,3.7l-1,3.1l-1.5,1.4l1.4,3.7l0.9,1.9l0.4,3.7l1.4,1.5l-0.4,1l-0.9,1.3l0.7,1.3l0.7,1.1l-0.3,1
		l-1.2,1l0.5,1.3l1.5,1.5l1.9-1l1,1l1.7,0.6l1.4-0.6l1,0.4l0.2,0.7h1.9l1.3-1.4l1.3-0.6l1.5-1.3l0.7,1l-1.6,1.7l-0.2,3.7
		c0,0-0.7,0.3-1,0.3s-1.3,1-1.3,1l1.5,1.3l1.5-1.4l2.8,2l1.3,1.1l-0.3,1.1l-1.7,1.4l-1.5,3.8l1.1,2.5l1.4,2l1.6,0.7l1.5,0.3l2.6,2.2
		l3.3-1.1l3.9-2.3l3.9-2.2l3.8,0.6l1,1.7l1.6-0.7l1.3,0.9l2.1-0.1l0.6,1.4l1.7-0.2l0.9-0.7l1.4,0.5l1.5,1.9l0.7,1.5l-0.4,2.2l1.3,2
		l-1.7,1.4l-0.7,1.5l0.7,2l1.5,2.2l-1.1,1.5l-2.2,0.7l-0.4,2.2l-1,1l1.5,1.7v1.7l1.7,1.5l0.6,1.5l3.9,0.4l2.3,2.1l1.8,0.1l2,2.5
		l2,0.3l2.8,1.1h1.8l0.3-2l2.3-2.2l4.7-0.3l1.7-2.5l2.5,0.1l1.4-2.1l2.5-2c0,0,1.7-0.7,2-1.3s0-2.3,0-2.3l3.3-2.2l2.5-1.8l2-2.6
		l2.6-0.1l3.6-3.1l1.1-2.3l-1.3-2.5l1.7-1.4l3.5-0.3l3.3-0.7l2.1-0.1l2.3-2.1l1-2.1l-1.7-2.1l0.4-2.6l3.5-2.5l-0.6-2.6l0.1-2
		l-1.3-1.1l-0.6-4.3l1.5-2.1l-1.8-2l-4.3,1.5l-1.8-1.4l-0.6-1.8l2.3-1l-1-2.3l-3.6-3.1l2.1-2.3h2.6l0.6,1.8l2.5-2l1.8,1.1l1-2
		l1.8-0.4l0.7,2.2l1.4-1.3l2.2,0.7l0.4,1.4l2.2-2.1l1,0.7l0.4,1.5h2.3l2-1.5l1.7,0.1l-1.3,2.1l3.3,0.7l2.5,2l0.1,2.1l2.3,0.6
		l1.8-1.4l1.5,0.7l1.1,2l0.6,2.3l2.2,0.7l2.6-3.2l2.6-2l-0.1-2.5l-1.3-1.4l2.9-3.6l2.1,1.7l0.7-2.5l-0.7-2.9l-2.5-2.9l2.1-1.5
		l0.1-3.3l-1.1-1.7l-0.3-2.9l-0.6-2.5l-1.3-2.5h-1.5l-0.4,1.4l-2.8-0.6l-2.1-2.3l-2.2-2.8l-1.1-3.3l-2.1,0.3l0.7-1.5v-2.1l-2-1
		l-2.3,1.4l-2.2,1l-2.1-0.1l-1.5-0.4l-0.4-2l-2,0.3l-1.8,2l-0.3,2.9H460l0.1,4.9l-2,1.1l-2.3-0.7l-1,2.2l1,1.8l-1.1,2.5l1.5,2.2
		l-0.1,2.2l-3.2,1.3l-2-0.6l-2.1-1.5l-1.5,0.7l-1.8,1.7l-2.9-0.3l-2.3-1.3l-2.2,1.1l-3.1,0.3l-1.3-1.1c0,0-0.7,1.5-1.8,1.7
		c-1,0.1-3.2-0.1-3.2-0.1L427,178l0.7-2.8l-1.3-1l-2.3,0.7l-1.3-1.1l-1.1-2.2l1.5-2.2l-1.1-1.5l-2.3-1.3l-1.5,0.6l-0.3-2.5l-1.4-2.3
		c0,0,0.3-2,1-2.3c0.7-0.4,3.1-1.3,3.1-1.3l2.8-0.3l-0.6-2l-3.7,0.1l-1.8-2.2v-3.9l-2.2-3.5l1.4-2.9l-0.1-6.7l-2-1.8l-1.7-1.8
		l-2,2.3l0.3,2.2l-2.9,1.1L404.7,141.7z"/>
		<path id="Path_-1150999981" name="宿州" class="view-map-svg-path" d="M371.2,123.3l2.6,1.1l2.7,4.3l2.8,0.2l2.6-0.7l1.9,1.4l0.9-2.8l3.6,0.2l0.9-2.2l7.5-0.3l0.7-2.5
		h2.8l1.7-2.8l-1.1-1.6l-0.3-4.5l3.1-3.6l3.3,1.4l1.1-12.5l3.4-4.4l-0.9-5.6l2.5-0.3l-2.5-2.5l-4.5-1.1l-6.6,2.8l-3.1-1.7l-1.9,2.8
		l-2.5-0.7l-1.1,1.9l-3.7-2.2l-3.6,0.6l-3.2,2.1l-2.6-4.2l2.6-1.9l-0.3-3.4l0.7-4.9l-2.1-2.2l-2,1.1l-3-3.8v-5.5l-3.8-3.6l-3.1,4.2
		l-2.8-2.5v-2.8l-2.6-2.6l-3.3,3.3l-4.2,0.9l-1.9-4.4l-2.6-1.4l-2.7,0.5l-1.2,1.9l-1.2-1.7l-3,2l-7.2-3.9l-1.4-2.1l-6.6-4.2
		l-3.3,1.7L321,53l-0.7-1.2l-0.1-2.8l1.9-2.7l1-3.5l1.8-1.1l-4.4-4.2l-0.3-2.8l2.6-2.2l-2.8-3.5l-2.9-1.7h-3.2l-2.2,1.9l-3.8-3
		l-2-3.9l-9.5-1.7l-4.9-0.7l1.4-2.2l-2.6-2.2l-2.1-0.2l-3.1-2.8l-0.3-3.4l-3-1.9L280.8,5L273,8.2l-1.2,1.9l-2.5-0.7l-3.1,4.7
		l-2.5-2.6l-0.9,6.4l-2.5,4.2l3.8,5.6l-0.7,1.9h3.6l7.7,5.2l0.9,4.8l2.5-1.4l2,1.6l1.4-2.5l1.9,1.9l2.8-3.1l6.1,3.1l-4.2,5.5
		l2.6,2.8l-2.8,3.9l5.1,10.4l4.4,0.5l3.8,0.1l2.9-0.2l3.3,2.3l0.6-2.8l-0.2-3.2l1.3-2.5l1.4,2.6l1.4-2.2l1.5,0.3l2.8-2.5l1.1,1.5
		l1.7,0.9l2,0.1l-0.5,1.3l-1.6,1.4l0.6,1.4l1.5,0.6l0.4,1.8l-2.5,0.4l-1.6-0.4l-0.9,0.9l-0.1,1.9l-3.6,2.3l4.4-1l2.8,1.5l-0.4-3
		l3.7,2.5l-0.5,4.3l-2.6,1.1l-1.7,12.6l-1.3,1.9v5l-2.9-0.9l-0.7,4.4l-1.5,0.6l1.5,3.1l2,1.9l2.8-0.2l-2.8,3.9l0.9,4.8l4.6,4
		l-0.9,4.4l-2,1l-1.3,3.3l1.1,2.9l2,2.2l4.4,0.5l1.5-2.1l5.3,0.6l-1.2-1.9l-2.3-1l2.3-3l-3.2-1.6l2.2-3.6l4.5,3.1l-0.4-3.8l2.7-2.7
		l3,2.5l0.4-2.7l2-2.7l0.2-1.9l4.4,1.4l5,1.3l2.7,2.5v2.9l5,5.6l3.1,0.4l2.1,1.8l4.4,1"/>
		<path id="Path_-644915175" name="淮北" class="view-map-svg-path" d="M326,48.8l-3.3,1.7L321,53l-0.6-1.2l-0.2-2.7l1.9-2.8l0.9-3.3l2-1.1l2.5,0.1l-1,3.3l-0.9,1.5
		L326,48.8z M318,126.6l-1.5,0.5h-2.5l-1.7,1.8l-4.3-2.7l-1.4-3.6l1.8-3l-0.6-3.6l-5.4-3.3l-5.4-1.8l-4.3-0.2l-2.6,1.8l-2.5-0.6
		l0.6-4.7l-1-0.7l0.3-2.6l0.9-0.7l0.7-3.1l-5.5-5.2l1.5-2.7l-2.5-3.8l-2-0.6l-0.4-2.1l-2.2-2l0.4-1.9l2.1,0.4l0.2-4.2L284,76
		l1.9,0.7l2.1-2.2h2.2l0.6-2.2l3.2,2.2l2.5-0.3l-0.7-2.5l1.1-4.8l-3.7-4.8l4.4,0.6l3.7,0.1l2.8-0.2l3.3,2.2l0.7-2.7l-0.3-3.4
		l1.3-2.2l1.5,2.5l1.3-2.2l1.6,0.3l2.7-2.3l1.2,1.5l1.6,0.7l2,0.2l-0.5,1.3l-1.6,1.5l0.5,1.4l1.4,0.6l0.5,1.8l-2.5,0.5l-1.5-0.6
		l-0.6,0.7l-0.1,2L313,69l4.4-1l2.7,1.5l-0.4-2.9l3.7,2.5l-0.6,4.2l-2.5,1l-1.6,12.4l-1.3,1.9v5l-2.9-0.7l-0.7,4.4l-1.5,0.6l1.5,3.1
		l2.1,1.9l2.7-0.2l-2.7,3.9l0.7,4.8l4.6,4.2l-0.7,4.4l-2.1,0.7l-1.3,3.3L318,126.6z"/>
		<path id="Path_-249357804" name="亳州" class="view-map-svg-path" d="M308.1,126.3l-1.4-3.7l1.8-3l-0.6-3.6l-5.4-3.3l-5.4-1.8l-4.3-0.2l-2.6,1.8l-2.5-0.6l0.6-4.7
		l-1-0.7l0.3-2.6l0.9-0.7l0.7-3.1l-5.5-5.2l1.5-2.7l-2.5-3.8l-2-0.6l-0.4-2.1l-2.2-2h-4.6l-2,1.6l-2.3,0.4l-1,1.5l-1.1,1.7l-1.8-1.3
		l-1.3,1.3l-1.7,0.1l-1,1.4l-1.4-0.3l-1.5-3.1l-2.1-1.8l-1.5-1.8l-1.8-0.7l-1.4-2.6l1.1-1.5l-1.1-2.6l-3.2-2.3l-2-1.7l0.6-2.5l1.7-2
		l-3.7-4.2l-3.8,0.4l-1.7-2.1l-1.5,1.8l-1.5-0.3l0.1-1.8l-3.2-3.1l-2.6,0.4l-2.8-1.7l-2.2,1.1l-1.7-0.4l-2.3,0.6l-1.1,2.2h-2.1
		l-0.4,2.3l-1.4,1.1l0.1,2l-2.2,3.8l0.3,2.5l-1.7,2.1c0,0,1.7,0,2.3,0s1.7,1.4,1.7,1.4l1.8-1l1.5,1.5l0.1,1.7l-1.5,1.8l-0.1,3.1
		l-1,1l-2.1-0.7l-1.4,1.5l2.6,3.7l-0.4,2.2l0.3,3.7l3.1,5.5l0.4,4.5l2.1,3.9l4.9,0.1l4.3,2.6l3.2,2.5l2.2,2.1l2.1,2l0.4,5.2l2.3,3.9
		l-1.7,1.3l-0.3,3.3l1.5,1.8l-1.4,1.7l-2.8-3.1l-2.1-1.3l-1,1.4l-0.1,3.1l1.8,2l-1.8,1.5l-0.4,1.5c0,0,1.3,0.3,1.7,0.7
		c0.4,0.6,0.3,2.2,0.3,2.2l2.3,0.6l-0.7,1.9l6,0.7l2.3,2.5l2.6,0.3l2.6,1.3l0.3,4.5l6,0.7l2,2.3l0.4,3.3l2.6,2.8l2.9,0.3l0.7,2.1
		l4.7,0.6l4.5-2.3l2.6-0.4l-2.6-3.6l1.3-6.5l7,2.6l7,1.7l5.9,2l7.4,0.6l-0.3-3.7l2.1-2.8l4.5,0.7v-2.3c0,0-4.9-2.5-4.9-3.1
		c0-0.6-0.1-2.6-0.1-2.6l1.5-2l-1.7-2.3l2.2-3.1l2.2,0.7l0.6-3.5l0.7-2.1c0,0-2.5-4.3-2.6-5.2C307.9,128.4,308.1,126.5,308.1,126.3z
		"/>
		<path id="Path_1439486031" name="阜阳" class="view-map-svg-path" d="M277.3,163.7l-1,3.5l2.8-0.6l1.5,1.3l-0.4,8.8l1.4,2.5l-1.4,2l2.3,2.2l2.1-0.4
		c0,0,3.6,4.6,3.5,5.2c-0.1,0.6,0.3,3.7,0.3,3.7l5-0.4l2,2.8l-1,1.4l-4.5-0.6l-2.6,3.3v2.3l-3,2.7l-1.5,2l-1.3-1.4l-3.8,1.1
		l-4.2-3.8l-2.2-3.3l-4.2,0.3l-2,5l-2.5,0.3l-2.5,2.2l-4.7-4.5l-1.7-5l-4.2-2l-0.7-2.8l-2.2-2l-3.6,1.1l-1.7,3.1l-2.2-1.4l-4.5,6.4
		l-4.5,3.3l-1.3-3.1l-2,2l-4.7-1.7l0.7,2.5l-1.7,0.6l0.3,2.8l-3.6,2.5l-2-2.5l-2.8,2l-3.8-3.6l-3.8-5.9l-3.6-2.8l-1.1-2.5l-5.5,0.7
		l-3.8-2.2l-5.5-0.7l-1.1-3.8l1.1-2l-2-2.2v-6.7l2-2.8l-0.6-2.2l0.6-3.3l-2-0.6l-2.5-2l-0.7-2.5l-2,0.7l-2-0.7l-2.8-0.3l-1.7-3.1
		l-3.6-0.6l-1.7,1.1l-2.8-3.1l-2.2-1.1l0.7-3.3l2.5-0.6l-1.7-5.5l-0.3-3.6l3.6-2.8l2.8,1.7l0.6,2.8l3.1,1.1l8.8,1.4l3.6-3.8l3.6-0.7
		l3.8-0.7v-5.2h2l1.4-8.1l1.7-4.2l-3.1-3.3l1.4-2.5l-1.4-1.7l0.6-2.5l1.7-0.3l-0.3-3.8l1.4-2l3.6,1.1l1.4-5l3.1-0.6l6.9,0.6l1.7-2.2
		l5,0.1l0.2,2.7l2.1,3.9l4.9,0.1l4.3,2.6l3.2,2.5l2.2,2.1l2.1,2l0.4,5.2l2.3,3.9l-1.7,1.3l-0.3,3.3l1.5,1.8l-1.4,1.7l-2.8-3.1
		l-2.1-1.3l-1,1.4l-0.1,3.1l1.8,2l-1.8,1.5l-0.4,1.5c0,0,1.3,0.3,1.7,0.7c0.4,0.6,0.3,2.2,0.3,2.2l2.3,0.6l-0.7,2l6,0.7l2.3,2.5
		l2.6,0.3l2.6,1.3l0.3,4.5l6,0.7l2,2.3l0.4,3.3l2.6,2.8l2.9,0.3l0.7,2.1l4.7,0.6l4.5-2.3L277.3,163.7z"/>
		<path id="Path_-1885611012" name="蚌埠" class="view-map-svg-path" d="M396,124.3l2.1-0.1l-1.3,5l-2,0.7l-0.7,3.8l2.8-0.6l1.4,1.5l-0.7,1.9l4.7,4.3l2.1,0.6l-0.6,5.5
		l-2.2-0.1l-2.8,2.3l0.1,1l2.9,1l-1,2.3l-2.3-0.6l-1.4,0.4l-2.1-1.1l-2.9,2.6l-4.2-1.9l2.6-2.3l-1.4-1l-5.9,1.7l-0.6-1.5l-1.5-0.1
		l-2.2,3.5l-2.2,0.3l-1.3,2.1l-0.1,2.3l-1.4,3.5l-1.8,1.1l-1.3-1.7l-2.9-0.1l-4.5-5l0.1,3.6l-1.3-0.1l-1.3,1.5l0.4,2.3l0.7,0.7
		l-0.6,2h-1l-2.1,2.9l-1.4-0.7h-2l-1.1,0.7l-3.2-0.7l-2.2,1.5h-2.2l-2.1,1.9h-2.2l-1.3,1.8l-0.3,1.5l-2.9,3.7l-5.9-3.5l-0.7,1.5
		l-2.2,0.7l0.7,1.5l-1.5,1l-6.1-6.7l-2.8-0.3l-13.6-12l-2.2-0.6l-0.3-3.7l2.1-2.8l4.4,0.7v-2.2l-4.4-2.6l-0.5-0.5l-0.1-2.6l1.5-2
		l-1.7-2.3l2.2-3.1l2.2,0.6l0.6-3.4l0.7-2.1c-0.9-1.7-2.6-4.5-2.7-5.2c-0.2-0.5,0.2-1.9,0.3-2.9l4.2,2.6l1.7-1.8h2.5l1.4-0.6
		l0.1,0.2l2.1,2.2l4.4,0.4l1.5-2.1l5.3,0.6l-1.3-1.9l-2.2-1l2.2-2.9l-3.1-1.7l2.2-3.6l4.4,3.1l-0.4-3.9l2.7-2.7l2.9,2.5l0.4-2.7
		l2.1-2.5l0.2-2.1l4.4,1.5l5,1.3l2.7,2.5v2.9l5,5.5l3.1,0.4l2.1,1.9l4.4,0.7l3.1-2.2l2.5,1.1l2.8,4.2l2.8,0.3l2.5-0.7l2,1.4l0.7-2.8
		l3.6,0.3l0.7-2.2L396,124.3z"/>
		<path id="Path_-620661267" name="淮南" class="view-map-svg-path" d="M319.6,172.8l-14-12.1l-2.1-0.4l-7.5-0.6l-6-1.9l-6.9-1.7l-7-2.6l-1.2,6.5l2.6,3.5l-0.4,0.1
		l-0.9,3.3l2.8-0.5l1.5,1.3l-0.4,9l1.4,2.5l-1.4,1.9l2.3,2.2l2.1-0.3l3.4,4.9v0.6l0.3,3.2l4.9-0.4l2,2.8l-0.6,1.8l-4.5-0.6l-2.6,3.3
		v2.3l-3,2.7l-1.5,2l-0.8-0.9l-0.3,1l2.5,2.4l-2,1l0.2,2.5l2.9,3.6l0.3,2.4l1.1,1.4l-1.5,2.1l1.4,1.7l-2.8,2.3l1.2,1l-0.3,2.9l2,3.1
		l-1,2.3l1.7,3.4l0.5,3.8l2.7,1l2.2,2.2l2.4,0.7l2.5,1.1l0.7,1.8l0.1,4.5l2.4-1.4l4,1.3l4.3-1.4l3.6-4.5l3.9-0.3l2.2-2l1.8,0.6
		l2.8,0.1l1.8-1l1.3-3.3l-2-2.3l0.1-3.6l-3.1-1.5l-0.8-3.5l3.7-0.4l0.6-1.8l-2.3-2.1l1.3-1.8l2.9,0.1v-2.2l1.8-1.5l-1.3-1.4h-2.1
		l0.7-2.5l1.3-1.3l-1.4-1.5l0.4-3.7l-3.9-0.2l0.2-0.9l0.2-0.8l0.2-1l2.5-1.3l0.5-1.9l1.9-1.8l-0.2-2.5l0.9-1.5l-0.5-1.4l1.2-0.9
		l2.3,1.1l2.1-0.4l0.6-1.3h0.9l1.2-0.2h2.5l0.3-1.1l-1.3-1.5l-0.4-3.6l-1-1.9l-1.4-3.6l1.5-1.4l1.2-3.2l-6-3.4l-0.7,1.6l-2.2,0.6
		l0.9,1.5l-1.5,1l-6.2-6.6"/>
		<path id="Path_-518079985" name="合肥" class="view-map-svg-path" d="M386.4,244.2l1.5,1l0.7,2.9l1.5,2.1l3.6,0.4l2.5,2.1l-0.2,5.2l-2.1,0.6l-1.3,2.5l1,4.4l1,3.3
		l-1.3,1.9l1.3,2.1l0.7,3.1v5l-0.4,4.4l1.5,1.9l0.4,2.9l-6.3,1.7h-8.1l-4.2,1l-2.5,5.3l-2.5,5.3l-2.2,5.2l-2.7,1.3l-4.2,7.5l2.2,4.2
		l-2.5,1.5l-0.7,6.8l-2.1,1.9l0.4,3.1l-6.2,2.5l-2.9,1.3V337l-5-2.7l-2.5,2.1l-3.9-3.6v-1.7l-4.8-3.7l-1.9,1.7l-2.2-2.1l-0.2-5.3
		l-2.5-7l-3.1-3.7v-1.7l2.9-1.7l-0.7-6.3l1.7-3.6l1.9-3.9l2.2-1.9l1-2.5l2.7,0.7l5.2-1.5l-2.9-2.7l-5.9-1.1l-1.8,1l-3.8-0.6l-2.8,1
		l-3.1-2.1l-1.3,2.2l-3.5-0.6l-2.1,1.4l-3.5-0.7l-2.3,1.7c0,0-5.6-3.9-5.3-4.6c0.3-0.6,0.1-3.9,0.1-4.9c0-0.9-1.1-2.8-1.1-2.8
		l1.5-1.3l-0.3-3.8l-1.3-1.1l1.4-1.4l-0.7-2.5l-2.5-1.3l-3.1-2.8l2-2.2l2.2-1.1l-1.7-2.1l3.6-3.5c0,0,3.7-0.7,4.3-1.4
		c0.6-0.6,3.6-4.5,3.6-4.5l3.9-0.3l2.2-2l1.8,0.6l2.8,0.1l1.8-1l1.3-3.3l-2-2.3l0.1-3.6l-3.2-1.7l-0.7-3.3l3.7-0.4l0.6-1.8l-2.3-2.1
		l1.3-1.8l2.9,0.1v-2.2l1.8-1.5l-1.3-1.4h-2.1l0.7-2.5l1.3-1.3l-1.4-1.5l0.4-3.7l-3.9-0.2l0.6-2.7l2.5-1.3l0.5-2.2l1.9-2l-0.1-2.2
		l0.7-1.6l-0.6-1.4l1.3-0.7l2.2,1l2.1-0.5l0.7-1.3h1l1-0.3h2.2l-0.9,1.2l0.7,1.3l0.7,1.1l-0.3,1l-0.7,1.1l0.5,1.3l1.5,1.5l1.9-1l1,1
		l1.7,0.6l1.4-0.6l1,0.4l0.2,0.7h1.9l1.3-1.4l1.3-0.6l1.5-1.3l0.7,1l-1.6,1.7l-0.2,3.7c0,0-0.7,0.3-1,0.3s-1.3,1-1.3,1l1.5,1.3
		l1.5-1.4l2.8,2l1.3,1.1l-0.3,1.1l-1.7,1.4l-1.5,3.8l1.1,2.5l1.4,2l1.6,0.7l1.5,0.3l2.6,2.2l3.3-1.1l3.9-2.3l3.9-2.2l3.8,0.6l1,1.7
		l1.6-0.7l1.3,0.9l2.1-0.1l0.6,1.4l1.7-0.2l0.9-0.7l1.4,0.5l1.5,1.9l0.7,1.5l-0.4,2.2l1.3,2l-1.7,1.4l-0.7,1.5l0.7,2l1.5,2.2
		l-1.1,1.5l-2.2,0.7l-0.4,2.2L386.4,244.2z"/>
		<path id="Path_372778969" name="安庆" class="view-map-svg-path" d="M316.6,358.9l2.5,4.8l0.6,2.3l2.9,2.8l4,1.6l0.6,4.8l-0.9,2.5l1.6,2.8h-3.2l-2.6,2.2l-2.9,3.2
		l-3.7-0.1l-0.7,2.9l1.3,4.3l1,3.3l1.1,3.1l-0.7,3.6l-5,5.9v1.8l-2.3,2.9l-2.5,3.3l-3.6,3.2l-3.1,0.4l-2.9-1.5l-3.7-0.1l-2.9,2.8
		l-1.5,2.3l0.3,6.4l-1.8,3.3l-3.1,0.7h-3.7l-6,3.9l-2.8,0.7l-3.9,3.2l-3.8,2.6l-3.9-4.2l-3.1-0.7l-2.8,0.7l-0.7-3.3l0.1-4.3
		l-2.5-2.1l-1.5-2.6l0.7-3.9l0.7-2.6l-1.3-2.2l0.7-5.6l-1.4-1.7l-1.1-3.6l0.6-2.5l-1.7-1.3l-1.8-2.1l-2.3-1.4l-0.1-2.6l-3.2-1.8
		l-2.5,0.7l0.7-2.1l-2.5-2.8l-0.1-2.3l2-1.8l2.2-2.2l-3.1-2.2l-0.3-3.2l1.3-2.5l-1.8-2.5l-0.6-3.3l-2.3-2.3l-2.6,0.3l-0.3-2.8
		l-1.3-2l-2-1.5l-0.3-3.9l0.7-2.9l1.8-1.1l3.5,0.4l1.4-3.1l0.7-2.2l-2.5-2.1l2.2-2.6l1.8-2l2.6,0.6l2.8-2.9l3.6-2.9l2.6-1.1l2.8,0.3
		l-1.3-2.8l-0.6-2.2l0.6-3.5l3.5-3.5l2.2,0.3l2.1-1.1l1.8,1.5l0.4,2h3.1l2.8-2.1l4.3-5.2l1.8-0.6l2.2-2l3.6,1l1.4,1.3l1.3,2l3.9-1.8
		c0,0,3.7-3.1,4.3-3.1c0.6,0,0,2,0,2l0.3,3.2l0.6,1.8l-1.7,1.3l-1,2.5c0,0-0.6,3.2,0.3,3.3c0.7,0.1,2.8-2.3,2.8-2.3l2.1,0.1l1.7-2.5
		l2.3,2.3l1.7-0.7l2.5,1.5l1.5-1.8l5.5-0.1l3.5-2.9l1.4-2.6l4.5-0.5l-1.3,2.8l-2,1.4l0.3,4.8l1.5,2.8l-0.1,5.1l0.9,3.5l0,1.6l0,2.5
		L316.6,358.9z"/>
		<path id="Path_1262043503" name="池州" class="view-map-svg-path" d="M378,353.4l-5.9,2.2l-3.5,0.6l-5.2,4.2l-2.9,3.2l-2.9,0.4l-2.5-1.7l-4.7,0.3l-3.2,2.6l-2.2-0.1
		l-4.7,3.1l1.4,2.1l2.1,3.3l-1.5,4.5l-0.7,3.1l-2.8,2.1l-3.7-1.7l-3.1-0.7l-4.2-0.1h-3.2l-2.6,2.2l-2.9,3.2l-3.7-0.1l-0.7,2.9
		l1.3,4.3l1,3.3l1.1,3.1l-0.7,3.6l-5,5.9v1.8l-2.3,2.9l-2.5,3.3l-3.6,3.2l1.8,2.1l1.3,0.9l0.6,1.6l1.6,0.7l0.9-0.4l0.4,0.9l-0.7,0.9
		l1.3,1.4l1.1-0.4l0.7-1.3l1,0.9l1.4,0.7l1,0.7l0.1,1l-1.4,0.7v2l-0.3,1.4l-1.1,1.7l-0.7,0.5l-1,1.8l-1.3,1.6l-0.7,1.9l-2.1,0.5
		l-0.2,1.3l-0.4,1.1l-1.3-0.3l-1.4-1L303,445l-1.3,1.3l-1.9,1.5l-1.5,1.6l-0.9,1.9l-0.6,1.3l-1.6,0.7l1.4,0.7c0,0,1.9-0.2,1.5-0.4
		c-0.4-0.2,1.5-0.6,1.5-0.6l1,0.7l-2.2,0.9l-1,1l-1.6,1.9l1.1,1.4l1,0.5l0.7,1.3l0.9,1.3l0.9,0.2l0.6,0.7l-0.1,1l0.7,0.3l1.6-1.1
		l0.5-1.4l1.4,0.2l1,0.7v1.5l1.5,0.5l1.8,0.1l1.7-1.5l0.9-1.5l0.9-1.6l0.7-1h1.8l1.6-0.9l1-1l2.5-0.1l0.9-1.5l1-1.5l1.4-0.7l1.9,0.4
		h1.5l1.8-0.7l1.8-1.3l1.6-0.9l0.7-1.1l-1.6-1l-0.4-1.6l1.5-0.6l0.7-0.7l0.2-1.4l-1-0.9l-2.1-1.3l-1.8-0.9v-1l1-0.5l1.3-0.5l1.9-1.6
		l1-1.4l-0.9-1.4l0.2-1.4l1.8-1.1l1.7-0.3l2.5-0.5l0.7-1.7l-0.9-0.6v-1.4l1.1-0.9l2.1-0.1l2.1-1l1.9-0.2l2.1-0.7l2.9-1h1.7l1.8-1.5
		h1.4l1.3,0.4l1.4,0.1l0.7-1.4l1.5-0.1l1,0.7l1.6-0.5l1.8-1l0.5-1.3l-0.3-1.8l-0.7-0.5l-0.1-1.1l1.4-0.5l1,0.9c0,0,0.7,0.1,1.4-0.1
		c0.6-0.2,0.4-1.8,0.4-1.8l1.7-1.4l0.7,0.3l0.1,1.5l0.4,0.6h1.4l1-1.1l1,0.3l0.6,0.9l1-0.1l0.4-1.9l0.7-1.1l1.4-0.7l0.9-0.5l1.9-0.2
		l2.5-0.3l0.9-0.2l1.8-2.2l1.7-0.1l1.3-0.1l0.7-1.9l-0.2-1.5l-1.7-0.2l-1.6-0.5l0.7-1.3l1.8-1.7l1.4-0.7l1.5,0.2l0.2-1.5l1.1-1.3
		l1.3-1.5l1.6-0.3l0.6-1.4l-1.5-1.3l-0.6-1.3l1.3-1.8l1.5-0.7l-0.5-2.2l-0.9-1l-0.3-1l1.5-1l-1.3-0.9l0.1-1l1-1.5l0.9-2.1l0.9-1.1
		l1.3-1.8l-0.4-1.3l-0.6-0.7l1.4-1.1h1.9l1-0.4l0.7-1.3l1.6-0.7l1-1.1l0.5-1.5l1.3-1.5l0.2-1.4l1-1.4l1.4-2.2l-0.6-1.9l-1.7-1.5
		l-1.9-0.9l-1.3-1.4l-1.9-1.4l-1.9-0.3l-1.6-0.1l-1.1-1.1l-1.1-1l1.5-1.5v-2l-1,0.9l-0.6,0.7l-0.9-0.1l-0.6-0.7l-1.2-0.3l-1.4,1.9
		l-0.7,0.9l-1.3-0.6l-2.1,1.9l-0.6,1.6l-1.1,1l-1.5,0.7l-1.3,0.7l-1.3-0.1l-1.7-2.7l0.1-1.2l-1.5-1.6l-0.7,0.4l-0.5,1.1H378z"/>
		<path id="Path_-49503583" name="黄山" class="view-map-svg-path" d="M398.5,379.2l1.5,0.7l1.4,0.7l0.9-0.7l1.5,0.7l1.6-1l1.3-1l2.1-0.1l1.8,0.1l0.7,0.7l0.7,1
		l-1.3,1.3l-1.5,1.1l0.7,1.3v1.7l1.1,0.5h1.6l1.1-0.7l0.4-1.8l0.7-1.6l1.1-0.7l1.5,1l1.4,1l0.4,1.3l-0.4,2l0.6,1.3l1,1.3l0.9,1.4
		l1.5,0.2l1.4,0.7l1.1,1.3l0.7,1l-0.7,2.8l0.6,0.9l0.7,1.3l-1,0.7L424,399l-1.3,0.7l-0.4,1.3l-0.2,1.5l0.6,0.7l1.4,0.6l-0.4,1.5
		l0.2,1.4l1.5,0.1l0.9,1.3l1.5,1.5l0.1,1.6l0.4,1.7l0.7,1.7l0.7,0.7l1.3,0.6l0.9-1l0.9,0.4l1,0.7l0.9-1h1l1.1,1.3l1.5,1h1.3l0.7,0.7
		l1,2l0.9,1.3l-1.8,1.3l-0.5,1.8l1.5,2l1.5,1.8l1.9,0.6l1.1-0.7l1.4-0.7l1.5-0.6l0.7-1.1l-0.2-1.7l0.7-1.3l1-1.1l1.9,0.7l2-0.4
		l0.3-1.6l0.4-1.6l1.6,0.1l1.1-0.9l0.7-1.5l1,0.2l1.9,0.6h1.5l1.8-1.4l0.7-1.1l1.3-0.7l1.6,0.5l0.5,1.4l-0.1,1.8l1.5,0.9l0.7,1
		l-0.6,1.1l1.4,1l-1.1,0.7v1.3l0.2,1.4l0.6,1l-0.5,0.7l-0.2,2.1l-1.6,0.1l-1.7,0.1l-0.6,1.1l0.1,2.1l-0.4,1.6l-1.6,1.5
		c-0.5,0.3-1.5,1.6-1.5,1.6l-1.1,1l-1.7-0.1l-0.6,1.4l0.7,1.1l-2.2,0.7v2.2l0.7,1.3l0.4,1.4l-0.3,1.9l-1.6,0.6l-0.1,1.7l-1.7,0.5
		l-1.6,1.4l-0.6,1.9l-1.1,1.8l-1.5,0.7l-1.6-0.7l-1.7,0.6l-1.8,0.7l-1,1.7l-1.3,1.1l-0.9,1.4l-2,0.9l-1,2l-0.2,1.3v1.5l-0.7,1.4
		l-2.1,0.6h-1.5l-2.2,0.1h-2.1l-1.1,1.3l-1.4,1.6l-1-0.7l-1.6-1.3l-1.3,0.9l0.2,1.3l0.6,1.4l0.3,1.6l-0.2,1.8h-2.1l-1.6-0.2
		l-1.7-0.4l-1.5,0.9l-1.4,0.6l-0.9,1.8l-1.6-1l-2.2-0.9l-1.6-0.7l-0.2-1.3l0.7-1.3l-1.4-1.6l1.5-1.3l-0.4-1.6l-0.7-1.1l-1.4-0.7
		l-0.9-1l-1.7,0.1l-1.5-0.1l-0.9-1.6l-0.6-1.1l-0.9-0.9l-1.3-0.1l-1.1,0.7l-1.5-0.2l-1.4,0.3l-1.1,0.9h-2l-1.5,0.9l-2.1-0.3
		l-1.3-0.7l-2.2-0.6l-1-1l-1,0.7c0,0-0.6,0.5-1,0.5c-0.3,0-1.9,0-1.9,0l-1.5,0.1l-1,1.3l-1.4,0.3l-1.6-0.7l-1.4-0.9l0.4-0.7
		l-0.5-1.3l-1-0.7l-0.6-1.3l-1.7-0.6l-0.9,1l-1.1,1l-2,0.5H367l-2-1l-1-1.1l-1.4-1.4l0.7-1.3l0.5-1l-0.6-0.7l-1.5-0.7l-0.6,0.7
		l-1.5,0.1l-0.5-1l-0.4-1.1l-1-1.3l0.6-1.1l0.1-1.8v-1.3l-0.7-1.4l-1.5-0.2l-0.7-1.1l-0.7-1.4l-0.5-1.5l0.7-1.7l0.7-1.8l-1.3-0.7
		l-1.5,0.2l-0.9,0.4l0.1,1.7l-0.7,1.1l-1.3-0.3l-1-0.7l-0.1-0.9l0.2-1.5l-0.7-0.6l-1,0.6l-0.4,1l-1.3,0.3l-0.7,0.2l-0.6,1l-1.4-0.2
		l-1.3-0.7l-0.9-0.9l0.2-0.9l0.7-1l0.7-1.4l-0.6-1.3v-1l-0.9-1.3l-1.6-0.1l-0.7-0.2l-1.1-0.5l0.7-1.6l-0.9-0.6v-1.4l1.1-0.9l2.1-0.1
		l2.1-1l1.9-0.2l2.1-0.7l2.9-1h1.7l1.8-1.5h1.4l1.3,0.4l1.4,0.1l0.7-1.4l1.5-0.1l1,0.7l1.6-0.5l1.8-1l0.5-1.3l-0.3-1.8l-0.7-0.5
		l-0.1-1.1l1.4-0.5l1,0.9c0,0,0.7,0.1,1.4-0.1c0.5-0.2,0.4-1.8,0.4-1.8l1.7-1.4l0.7,0.3l0.1,1.5l0.4,0.6h1.4l1-1.1l1,0.3l0.6,0.9
		l1-0.1l0.4-1.9l0.7-1.1l1.4-0.7l0.9-0.5l1.9-0.2l2.5-0.3l0.9-0.2l1.8-2.2l1.7-0.1l1.3-0.1l0.7-1.9l-0.2-1.5l-1.7-0.2l-1.6-0.5
		l0.7-1.3l1.8-1.7l1.4-0.7l1.5,0.2l0.2-1.5l1.1-1.3l1.3-1.5l1.6-0.3l0.6-1.4l-1.5-1.3l-0.6-1.3l1.3-1.8l1.5-0.7l-0.7-1.8l-0.9-1
		l-0.3-1l1.5-1l-1.3-0.9l0.1-1l1-1.5L398.5,379.2z"/>
		<path id="Path_-2122726025" name="马鞍山" class="view-map-svg-path" d="M431.4,289.3l1.5,1.2l1.2,1.8l-0.5,2l1.1,1.6l0.2,1.5l0.9,1.4l1.8,0.7l1.5-0.6l0.6-0.6h1.6
		l0.6,1.8l1.2,1.1l1.1,1.3l-0.2,1.7v0.9l1.1,1.4l0.3,1.3l1.9,0.3l1-0.6l2.5-0.1l0.9-0.5l1.1,0.3l1.8-0.1l1.4-0.4l0.7-0.2l0.5-1.4
		l1-1.7l0.6-1.4l0.2-1.8l1.2-0.4l1.1,1.6l1.7-0.1l1.5-0.7l1.8-1.3l1.3-1.3l0.2-1.8v-2.3l0.1-1l1.4-1.5l-0.3-1.6l0.4-1.4l-0.3-1.7
		l-0.5-1.6l-0.1-1.3l0.1-2.2l-0.7-1.7l-1.3-1.6l-1.2-0.7l-1.4,0.2l-0.6,1l-1.2-0.7l-0.5-1v-1.4l0.7-0.9l-1-1.2l-2.5-0.2l-0.9,0.9
		l-0.2,1.7l-0.1,0.7l-0.7,1.1l-1.3-0.4l-0.6-0.9H454l-0.4,0.7l-1.1-0.2l-1-0.6l-1.1,0.1l0.1-1.6l-0.2-1.4h1.4l0.4-1.4l1.2-0.5
		l1.2-0.6l-2-1.8l-1.7-0.1l-0.4-2.1l-0.5-0.7l-2.5,0.6l-1.6,1.2l-1.2-0.2l-1.5,1.5l-1-0.7l-0.9-0.6l0.9-1.6l-1.9-0.6l-1.2-1.1
		l-1.2-0.6l1.6-4.4l-2.7-2.2l-0.6-2.5l-5.2-2.3l-2.7-2.5l1-1.6l-0.1-1.6l1.2-1v-3.5l-0.4-3l-6.6,2.9v2.3l-3.9,1.3l-2.1,3.4l-2.3,0.2
		l-1.9,2.3h-4l-3.5,3l-0.3,1.7l-1.7-1l-2.5-0.8l-2.6-0.9l-1.7-1.3l-1.4,5l-2,1.6l-1.5,2.3l1.1,7.9l-0.1,1.9l1.8,5.5l-0.1,9.2l1.1,1
		l0.9,3l0.3,3.1l0.5,3.1l12.2,2.1l3.9,0.7l7.8,2.9l3.4-4.6l-0.5-3.3l1.7,1.5l2.6-4.2l1.6-3.2"/>
		<path id="Path_-1069156405" name="芜湖" class="view-map-svg-path" d="M431.4,288.7l1.6,1.1l1.1,1.9l-0.5,2.1l1.2,1.7l0.1,1.4l0.7,1.5l1.8,0.7l1.4-0.6l0.7-0.7h1.7
		l0.5,1.7l1.1,1.1l1.2,1.3l-0.2,1.6v1l1,1.5l0.3,1.1l2,0.3l0.9-0.6l2.3-0.1l1.2,0.7l0.3,0.9l-0.3,1.5l-1,1l0.7,1.4l1.4,1.5l1.5,1.3
		l0.6,1.5l1.4,1l1.6,2l-1.7,1.5l-2.2,1.5l-0.6,1.1l1.4,1.5l-0.7,1l-0.6,1.8l-1.5,1.7l-1.3,1.6l-1.3,1.3l-1.5-1l-0.7-1.6l-1.3,1.3
		l-0.7,1.2l0.9,1.2l0.6,1.3l-1.5,1.8c0,0-1-0.6-1.3-0.4c-0.3,0.1-1.2,0.7-1.2,0.7l-1.5,1.3l-0.7,0.7l-0.3,1l1.3,1.5l-1.6,1.4l-0.7,1
		l-0.2,1.5v1.3l-0.6,0.7l1,0.9l-0.3,1l0.4,0.7l1.3,0.1l1,0.9l-1.3,0.9l-1.3,1.3l-1.3,1.4l-1.5-1.5l-0.2-1.3l-1.8-0.3l-0.4-0.9
		l0.9-1.2l-1.6-0.5l-1.5-1.2l-1.5,0.1l-1.5,1.2l-0.7,1.3l-1.4,0.1l-1,1.1l-0.4,1.3l-0.4,1.3l-0.9,1.3l-0.7,1.5l-0.6,1.3l0.9,1.2
		l1.3,0.7l1,1.1l-1.3,0.5l-1.3-0.2l-1.5-1l-1,0.7l-0.7,0.7l-1.5-0.9l-1.2-0.4l-1.3,1l-1.5,1l-1.4,1.5l-0.7,1l-1.8,2h-2l0.3-1.5
		l1.2-1.7l1.1-2l-0.6-2l-1.7-1.4l-1.9-1l-1.2-1.3l-2-1.4c0,0-2.8-0.3-3.2-0.3c-0.4,0.1-1-0.6-1-0.6l-1.5-1.6l1.5-1.5v-1.8l1.3-0.6
		l1.5-0.6l0.7,1.1l1.2-0.1l0.6-1.9l1.2-0.6l1,0.7l1.5-1l1.5-1.6l0.7-1h2.2l1.1-0.3l-1-2l-0.9-2.1v-1.1l-1.7-0.3l-1.7-0.9l-1.4-2
		l-0.7-1.4l-2.6-0.3l-1.2-0.9l-1.8-1.5l1-1.7l-0.4-0.7l-0.7-0.7l-2.7-0.4l-1.3,1.3l-3.8,0.1l-4.2-5.1l-2.2-0.2l-2.1,0.4l-2,2.8
		l-1,3.3l1.2,2.6l-0.1,1.6l-1.9,2.1l-0.2,1.9l-3.5,0.3l-2.6,1.7l-2-2.2l-3.5-0.6l-1.3,1l-2.6-0.1l-0.5-2.2l-3-1l-0.5-2.7l2.1-1.9
		l0.7-6.8l2.5-1.5l-2.2-4.2l4.2-7.5l2.7-1.3l7.2-16l4.2-1h8.1l6.3-1.7l1,1.7l0.7,3.7l14.5,2.9l7.9,2.9l3.3-4.7l-0.5-3.2l1.7,1.5
		l2.6-4l1.6-3.3L431.4,288.7z"/>
		<path id="Path_1657936635" name="铜陵" class="view-map-svg-path" d="M378,353.3l-6.4,2.4l-2.9,0.5l-5.2,4.2l-2.9,3.2l-2.9,0.4l-2.5-1.7l-4.7,0.3l-3.2,2.6l-2.2-0.1
		l-4.7,3.1l3.5,5.4l-2.2,7.6l-2.8,2.1l-3.7-1.7l-3.1-0.7l-4.5-0.1l-1.2-3.2l0.9-2.5l-0.6-4.8l-4-1.6l-2.9-2.8l-0.6-2.3l-2.5-4.8
		l-0.3-14.6l-0.9-3.5l0.1-2.6l0.1-2.5l-1.5-2.8l-0.3-4.8l2-1.4l1.1-0.8l4.1-4.1l1.5-6l2.5-3.2l1.3,0l0.1-1.8l3.1,3.7l2.5,7l0.2,5.3
		l2.2,2.1l1.9-1.7l4.8,3.7v1.7l3.9,3.6l2.5-2.1l5,2.7v1.5l9.1-3.7l2.3,0l0.5,2.2l2.6,0.1l1.3-1l3.5,0.6l2,2.2l2.6-1.7l3.5-0.3
		l0.2-1.9l1.9-2.1l0.1-1.6l-1.4-2.6c0-0.1,1.2-3.3,1.2-3.3l2-2.8l1.2-0.2l0.9-0.2l2.2,0.2l2.2,2.6l1,1.4l1,1.2l3.8-0.1l1.3-1.3
		l2.7,0.4l1.6,1.3l0.5,0.7l-1,1.6l2.5,2l2.1,0.3l1.6,1.8l1.5,1.9l0.7,0.5l2.6,0.7v1.1l0.7,2.1l1.1,2l-1,0.5l-2.2-0.1l-0.7,1.1
		l-1.4,1.5l-1.6,1l-1-0.7l-1.2,0.6l-0.6,1.8h-1.2l-0.7-1.1l-1.5,0.6l-1.2,0.6l-1,1l-0.7,0.7l-0.7-0.1l-0.6-0.7l-1.3-0.2l-0.5,0.7
		l-0.7,1.1l-0.7,0.7l-1.3-0.6l-1,0.9l-1,1l-0.6,1.7l-1,0.7l-1.5,0.6l-1.3,0.9l-1.3-0.2l-0.9-1.1l-1-1.1l0.1-1.4l-0.7-0.7l-0.7-0.7
		l-0.7,0.4l-0.5,1L378,353.3"/>
		<path id="Path_-1721641732" name="宣城" class="view-map-svg-path" d="M450.6,306.5l1.2,0.7l0.3,0.9l-0.3,1.5l-1,1l0.7,1.4l1.4,1.5l1.5,1.3l0.6,1.5l1.4,1l1.6,2
		l-1.7,1.5l-2.2,1.5l-0.6,1.1l1.4,1.5l-0.9,1.2l-0.6,1.8l-1.5,1.7l-1.3,1.6l-1.3,1.3l-1.5-1l-0.7-1.6l-1.3,1.3l-0.7,1.2l0.9,1.2
		l0.6,1.3l-1.5,1.8c0,0-1-0.6-1.3-0.4c-0.3,0.1-1.2,0.7-1.2,0.7l-1.5,1.3l-0.7,0.7l-0.3,1l1.3,1.5l-1.6,1.4l-0.7,1l-0.2,1.5v1.3
		l-0.6,0.7l1,0.9l-0.3,1l0.4,0.7l1.3,0.1l1,0.9l-1.3,0.9l-1.3,1.3l-1.3,1.4l-1.5-1.5l-0.2-1.3l-1.8-0.3l-0.4-0.9l0.9-1.2l-1.7-1.2
		l-1.5-1.2l-1.5,0.1l-1.4,1.5l-0.7,1.3l-1.4,0.1l-1,1.1l-0.4,1.3l-0.4,1.3l-0.9,1.3l-0.7,1.5l-0.6,1.3l0.9,1.2l1.3,0.7l1,1.1
		l-1.2,0.7l-1.3-0.2l-1.5-1l-1,0.7l-0.7,0.7l-1.5-0.9l-1.2-0.6l-1.3,1l-1.5,1l-1.4,1.5l-0.7,1l-1.8,2h-2.1l-1.1,1.2l-0.5,1.4
		l-1.1,1.3l-1.5,0.7l-0.7,1.2l-1,0.4l-1.9,0.1l-1.3,1l0.5,0.7l0.5,1.3l-0.7,1l-0.6,0.9l-0.7,1l1.5,0.7l1.4,0.7l0.9-0.7l1.5,0.7
		l1.6-1l1.3-1l2.1-0.1l1.8,0.1l0.7,0.7l0.7,1l-1.3,1.3l-1.5,1.1l0.7,1.3v1.7l1.1,0.5h1.6l1.1-0.7l0.4-1.8l0.7-1.6l1.1-0.7l1.5,1
		l1.4,1l0.4,1.3l-0.4,2l0.6,1.3l1,1.3l0.9,1.4l1.5,0.2l1.4,0.7l1.1,1.3l0.7,1l-0.7,2.8l0.6,0.9l0.7,1.3l-1,0.7l-1.6-0.4l-0.5,1.2
		l-0.4,1.3l-0.2,1.5l0.6,0.7l1.4,0.6L424,405l0.2,1.4l1.5,0.1l0.9,1.3l1.5,1.5l0.1,1.6l0.4,1.7l0.7,1.7l0.7,0.7l1.3,0.6l0.9-1
		l0.9,0.4l1,0.7l0.9-1h1l1.1,1.3l1.5,1h1.3l0.7,0.7l1,2l0.9,1.3l-1.8,1.3l-0.5,1.8l1.5,2l1.5,1.8l1.9,0.6l1.1-0.7l1.4-0.7l1.5-0.6
		l0.7-1.1l-0.2-1.7l0.7-1.3l1-1.1l1.9,0.7l2-0.4l0.3-1.6l0.4-1.6l1.6,0.1l1.1-0.9l0.7-1.5l1,0.2l1.9,0.6h1.5l1.8-1.4l0.7-1.1
		l1.3-0.7l1.6,0.5l1.3-0.7l1.1-0.7l0.6-1.3l-0.7-0.7l-0.9-0.4h-1.6l-0.7-0.5l0.3-0.6l1.3-0.6l1.2-0.4l1.1-0.2l1.2-0.9l1.1-1.5
		l-0.6-1.1l-1.4-1l-0.7-0.7l-0.7-1.4l-0.7-1.6l0.2-1.3l0.2-1.7l0.7-1l1.4-1.1l1.3-1.1l1.1-1.3l0.7-0.7l1.2,0.6l0.7-0.5l0.9,0.7
		l1.4,0.9l0.7,1l1.5,0.9l1,0.9l1.1,0.1l1.3-1.1c0,0,0.6-0.6,0.7-0.6c0.2,0,1.6,0.1,1.6,0.1s0.7,0.6,1,0.7c0.2,0.1,1,0.7,1,0.7
		l1.6-0.1c0,0,0.7,0.3,1,0.4c0.3,0.1,1.4,0.7,1.4,0.7l1.3,0.2l0.9-0.7l1-0.1l1.1,0.4l0.4-0.7l0.9-0.4l0.1-0.9l-0.4-1l0.3-1.3l1,0.1
		l0.9-0.1l1.1-0.7l1-0.9l1.1-0.7h0.7l0.7,0.5l0.7,1l0.9,0.2l1.2-0.4l1-0.7l1.4-0.6l-0.4-0.7l-1.4-1.5l-1.1-1l-0.7-1l-0.2-1.1
		l-0.4-0.9l-1-0.6l0.1-1.2l-0.6-0.7l0.4-1.4l0.2-1.4l0.1-1.2l-0.5-0.7l-0.7-0.9l-1.1,0.3l-0.6,0.7l-0.7,0.7l-0.7,0.5l-1.1-0.6
		l-1-1.4l-1.2-1.3l0.1-1.1l1-0.9l1.1-1.1l-0.4-0.9l-1.1-1l-0.9-1l0.7-0.7l2,0.1l1.7-0.1l1.1-0.7l1.1-1.3l1.1-1.4l1.5-1.1l1.2-1.2
		l1.3-0.1l0.7,0.7v1.1l0.4,0.7l1.8,0.5l1.7-1.3l0.5-1.2l1-1.7l1-1l0.2-2l-0.2-1.4l-0.6-1.1l0.6-1.5l0.9-0.7l1.5,0.3l1-0.5l0.9-1.4
		l0.6-1.1l0.2-1.1l0.7-0.5l1-0.3l0.2-1.1l-0.4-0.7l0.4-1.2l-0.5-1l-0.7-1.3v-2.8l1-1.7l1.1-1l-0.7-1.8l0.7-2l1.5-1.5l1.5-1.4
		l0.7-1.7l-0.6-2.5l-0.3-2.2l1-1.5l1.3-1.5l-1.3-1.5l-1.7-0.6l-1.8,0.3l-1.4,1.4l-1-1.4l-1-1.7l-1.5-0.6l-2.9,0.3l-2.6,0.1l-1.5-1.1
		l-1.4-1.4l-1.8,1l-1.1-1.7l-1.4-0.4l-1.1-1.3v-1.6l0.7-1.5l1.3-1.1l-0.7-2.2l-1.7-1.3l-0.4,1.5l-0.7,1.4l-2.8-0.3l-1.3,1.1
		l-1.7,0.3l-1-0.7l-1.3-0.1l-1,0.4l-1.4-0.7l-1.1-1.3l0.3-1.4l-1.1-0.4l-1.8,1l-1.5,1.5l-1.3,1.1l-1.4,0.6l-0.7,1.3l-3.1,0.6
		l-1.1,0.7l-1.5-0.1l-1.4-1l-1.4,0.6l-2.3-0.3h-1.7l-2.2-0.3l-1.8,0.7l-1.7-0.4l-2.2,1.1l-1.5-0.1l-2.5-0.6v-2.1l-1.5-1.5l-1.7-0.4
		l-1.4-1.4l-0.7-1.4l-1.8,0.7h-2l-1-0.4L450.6,306.5z"/>
	</g>
	<g>
		<text id='Region_-1150999981' name='宿州' x="340.4463" y="89.4839" class="view-map-svg-text">
			宿州
		</text>
		<text id='Region_-644915175' name='淮北' x="290.3506" y="100.4019" class="view-map-svg-text">
			淮北
		</text>
		<text id='Region_-249357804' name='亳州' x="251.8169" y="127.3755" class="view-map-svg-text">
			亳州
		</text>
		<text id='Region_-620661267' name='淮南' x="296.8086" y="204.9482" class="view-map-svg-text">
			淮南
		</text>
		<text id='Region_-1885611012' name='蚌埠' x="326.9595" y="153.707" class="view-map-svg-text">
			蚌埠市
		</text>
		<text id='Region_1439486031' name='阜阳' x="204.9341" y="156.9175" class="view-map-svg-text">
			阜阳
		</text>
		<text id='Region_-1167913982' name='滁州' x="387.3281" y="198.021" class="view-map-svg-text">
			滁州
		</text>
		<text id='Region_155838833' name='六安' x="251.8169" y="281.1514" class="view-map-svg-text">
			六安
		</text>
		<text id='Region_-518079985' name='合肥' x="340.4463" y="285.3652" class="view-map-svg-text">
			合肥
		</text>
		<text id='Region_372778969' name='安庆' x="267.8735" y="366.2861" class="view-map-svg-text">
			安庆
		</text>
		<text id='Region_1262043503' name='池州' x="344.1758" y="396.9736" class="view-map-svg-text">
			池州
		</text>
		<text id='Region_-49503583' name='黄山' x="395.0361" y="429.2256" class="view-map-svg-text">
			黄山
		</text>
		<text id='Region_-1721641732' name='宣城' x="453.04" y="367.5596" class="view-map-svg-text">
			宣城
		</text>
		<text id='Region_1657936635' name='铜陵' x="325.916" y="351.627" class="view-map-svg-text">
			铜陵
		</text>
		<text id='Region_-1069156405' name='芜湖' x="402.7422" y="318.1191" class="view-map-svg-text">
			芜湖
		</text>
		<text id='Region_-2122726025' name='马鞍山' x="404.6689" y="271.8779" class="view-map-svg-text">
			马鞍山
		</text>
	</g>
	<g>
		<circle id="Circle_-1150999981" name='宿州' class="view-map-svg-region-circle" cx="351.1" cy="100.1" r="3"/>
		<circle id="Circle_-644915175" name='淮北' class="view-map-svg-region-circle" cx="301" cy="111.1" r="3"/>
		<circle id="Circle_-249357804" name='亳州' class="view-map-svg-region-circle" cx="262.5" cy="138" r="3"/>
		<circle id="Circle_-620661267" name='淮南' class="view-map-svg-region-circle" cx="307.5" cy="215.6" r="3"/>
		<circle id="Circle_-1885611012" name='蚌埠' class="view-map-svg-region-circle" cx="337.6" cy="164.4" r="3"/>
		<circle id="Circle_1439486031" name='阜阳' class="view-map-svg-region-circle" cx="215.6" cy="167.6" r="3"/>
		<circle id="Circle_-1167913982" name='滁州' class="view-map-svg-region-circle" cx="398" cy="208.7" r="3"/>
		<circle id="Circle_155838833" name='六安' class="view-map-svg-region-circle" cx="265.3" cy="290" r="3"/>
		<circle id="Circle_-518079985" name='合肥' class="view-map-svg-region-circle" cx="351.1" cy="296" r="3"/>
		<circle id="Circle_372778969" name='安庆' class="view-map-svg-region-circle" cx="278.5" cy="376.9" r="3"/>
		<circle id="Circle_1262043503" name='池州' class="view-map-svg-region-circle" cx="354.8" cy="407.6" r="3"/>
		<circle id="Circle_-49503583" name='黄山' class="view-map-svg-region-circle" cx="405.7" cy="439.9" r="3"/>
		<circle id="Circle_-1721641732" name='宣城' class="view-map-svg-region-circle" cx="465.9" cy="375.4" r="3"/>
		<circle id="Circle_1657936635" name='铜陵' class="view-map-svg-region-circle" cx="336.6" cy="362.3" r="3"/>
		<circle id="Circle_-1069156405" name='芜湖' class="view-map-svg-region-circle" cx="413.4" cy="328.8" r="3"/>
		<circle id="Circle_-2122726025" name='马鞍山' class="view-map-svg-region-circle" cx="415.3" cy="282.5" r="3"/>
	</g>
</svg>
